<svg xmlns="http://www.w3.org/2000/svg" xmlns:xlink="http://www.w3.org/1999/xlink" version="1.1" x="0px" y="0px" viewBox="0 0 512 640" enable-background="new 0 0 512 512" xml:space="preserve"><g><path d="M174,239.7L47,87.4c-9-10.8-25-12.2-35.8-3.2c-10.8,9-12.2,25-3.2,35.8L121.4,256L8,392.1c-9,10.8-8,27.4,3.2,35.8   c12.6,9.4,30.7,2.8,35.8-3.2l127-152.4C181.9,262.9,181.9,249.2,174,239.7z"/><path d="M281.5,383H179.9c-14,0-25.4,11.4-25.4,25.4c0,14,11.4,25.4,25.4,25.4h101.6c14,0,25.4-11.4,25.4-25.4   C306.9,394.3,295.5,383,281.5,383z"/><path d="M484.6,383H383c-14,0-25.4,11.4-25.4,25.4c0,14,11.4,25.4,25.4,25.4h101.6c14,0,25.4-11.4,25.4-25.4   C510,394.3,498.6,383,484.6,383z"/></g><text x="0" y="527" fill="#000000" font-size="5px" font-weight="bold" font-family="'Helvetica Neue', Helvetica, Arial-Unicode, Arial, Sans-serif">Created by Icon Fair</text><text x="0" y="532" fill="#000000" font-size="5px" font-weight="bold" font-family="'Helvetica Neue', Helvetica, Arial-Unicode, Arial, Sans-serif">from the Noun Project</text></svg>